<?xml version="1.0" encoding="utf-8"?>
<!-- Generator: Adobe Illustrator 24.2.0, SVG Export Plug-In . SVG Version: 6.00 Build 0)  -->
<svg version="1.1" id="Capa_1" xmlns="http://www.w3.org/2000/svg" xmlns:xlink="http://www.w3.org/1999/xlink" x="0px" y="0px"
	 viewBox="0 0 510 510" style="enable-background:new 0 0 510 510;" xml:space="preserve">
<style type="text/css">
	.st0{fill:#C3C4C3;}
</style>
<g>
	<g id="post-linkedin">
		<path class="st0" d="M459,0H51C23,0,0,22.9,0,51v408c0,28,23,51,51,51h408c28,0,51-23,51-51V51C510,22.9,487,0,459,0z M153,433.5
			H76.5V204H153V433.5z M114.8,160.6c-25.5,0-45.9-20.4-45.9-45.9s20.4-45.9,45.9-45.9s45.9,20.4,45.9,45.9S140.3,160.6,114.8,160.6
			z M433.5,433.5H357V298.4c0-20.4-17.9-38.3-38.3-38.3s-38.3,17.9-38.3,38.3v135.1H204V204h76.5v30.6
			c12.8-20.4,40.8-35.7,63.8-35.7c48.5,0,89.3,40.8,89.3,89.3L433.5,433.5L433.5,433.5z"/>
	</g>
</g>
</svg>
